<?xml version="1.0" encoding="UTF-8" standalone="no"?>
<!-- Created with Inkscape (http://www.inkscape.org/) -->

<svg
   xmlns:dc="http://purl.org/dc/elements/1.1/"
   xmlns:cc="http://creativecommons.org/ns#"
   xmlns:rdf="http://www.w3.org/1999/02/22-rdf-syntax-ns#"
   xmlns:svg="http://www.w3.org/2000/svg"
   xmlns="http://www.w3.org/2000/svg"
   xmlns:sodipodi="http://sodipodi.sourceforge.net/DTD/sodipodi-0.dtd"
   xmlns:inkscape="http://www.inkscape.org/namespaces/inkscape"
   width="16"
   height="16"
   viewBox="0 0 16 16"
   id="svg2"
   version="1.1"
   inkscape:version="0.91 r"
   sodipodi:docname="invisible.svg">
  <defs
     id="defs4" />
  <sodipodi:namedview
     id="base"
     pagecolor="#ffffff"
     bordercolor="#666666"
     borderopacity="1.0"
     inkscape:pageopacity="0.0"
     inkscape:pageshadow="2"
     inkscape:zoom="32"
     inkscape:cx="7.1042519"
     inkscape:cy="7.8060154"
     inkscape:document-units="px"
     inkscape:current-layer="layer1"
     showgrid="false"
     units="px"
     inkscape:window-width="1920"
     inkscape:window-height="1025"
     inkscape:window-x="0"
     inkscape:window-y="27"
     inkscape:window-maximized="1" />
  <metadata
     id="metadata7">
    <rdf:RDF>
      <cc:Work
         rdf:about="">
        <dc:format>image/svg+xml</dc:format>
        <dc:type
           rdf:resource="http://purl.org/dc/dcmitype/StillImage" />
        <dc:title />
      </cc:Work>
    </rdf:RDF>
  </metadata>
  <g
     inkscape:label="レイヤー 1"
     inkscape:groupmode="layer"
     id="layer1"
     transform="translate(0,-1036.3622)">
    <path
       style="opacity:1;fill:#b6b6b6;fill-opacity:1;fill-rule:nonzero;stroke:none;stroke-width:1;stroke-linecap:square;stroke-linejoin:miter;stroke-miterlimit:4;stroke-dasharray:none;stroke-dashoffset:3.84000015;stroke-opacity:1"
       clip-path="none"
       d="M 8 2.9941406 C 6.9897524 2.9941406 6.020764 3.1683878 5.1113281 3.4804688 L 6.40625 4.7753906 A 3.5972628 3.5972628 0 0 1 8 4.4023438 A 3.5972628 3.5972628 0 0 1 11.597656 8 A 3.5972628 3.5972628 0 0 1 11.21875 9.5878906 L 13.046875 11.416016 C 13.574859 11.055916 14.078348 10.661653 14.523438 10.199219 C 15.358254 9.3319186 16 8 16 8 C 16 8 15.358286 6.6680813 14.523438 5.8007812 C 12.85374 4.0659813 10.547881 2.9941406 8 2.9941406 z M 3.6445312 4.1347656 C 2.8444983 4.5803316 2.1132495 5.1392692 1.4765625 5.8007812 C 0.64171406 6.6680813 0 8 0 8 C 0 8 0.64174722 9.3319186 1.4765625 10.199219 C 3.1462931 11.934019 5.452112 13.007813 8 13.007812 C 9.3178644 13.007812 10.563364 12.705302 11.697266 12.1875 L 10.283203 10.773438 A 3.5972628 3.5972628 0 0 1 8 11.597656 A 3.5972628 3.5972628 0 0 1 4.4023438 8 A 3.5972628 3.5972628 0 0 1 5.2246094 5.7148438 L 3.6445312 4.1347656 z "
       id="path4140-5"
       transform="translate(0,1036.3622)" />
    <path
       style="opacity:1;fill:#b6b6b6;fill-opacity:1;fill-rule:nonzero;stroke:none;stroke-width:1;stroke-linecap:square;stroke-linejoin:miter;stroke-miterlimit:4;stroke-dasharray:none;stroke-dashoffset:3.84000015;stroke-opacity:1"
       d="M 8 5.8847656 A 2.1147713 2.1147713 0 0 0 7.5644531 5.9335938 L 10.068359 8.4375 A 2.1147713 2.1147713 0 0 0 10.115234 8 A 2.1147713 2.1147713 0 0 0 8 5.8847656 z M 6.28125 6.7714844 A 2.1147713 2.1147713 0 0 0 5.8847656 8 A 2.1147713 2.1147713 0 0 0 8 10.115234 A 2.1147713 2.1147713 0 0 0 9.2285156 9.71875 L 6.28125 6.7714844 z "
       id="path4173-2"
       transform="translate(0,1036.3622)" />
    <path
       class="svgUi"
       style="fill:none;fill-rule:evenodd;stroke:#b6b6b6;stroke-width:1.5;stroke-linecap:butt;stroke-linejoin:miter;stroke-miterlimit:4;stroke-dasharray:none;stroke-opacity:1"
       d="m 2.0984394,1039.0606 11.2031256,11.2031"
       id="path4211"
       inkscape:connector-curvature="0" />
  </g>
</svg>
