<?xml version="1.0" encoding="UTF-8" standalone="no"?>
<!-- Created with Inkscape (http://www.inkscape.org/) -->

<svg
   xmlns:dc="http://purl.org/dc/elements/1.1/"
   xmlns:cc="http://creativecommons.org/ns#"
   xmlns:rdf="http://www.w3.org/1999/02/22-rdf-syntax-ns#"
   xmlns:svg="http://www.w3.org/2000/svg"
   xmlns="http://www.w3.org/2000/svg"
   xmlns:sodipodi="http://sodipodi.sourceforge.net/DTD/sodipodi-0.dtd"
   xmlns:inkscape="http://www.inkscape.org/namespaces/inkscape"
   width="16"
   height="16"
   viewBox="0 0 16 16"
   id="svg2"
   version="1.1"
   inkscape:version="0.91 r"
   sodipodi:docname="visible.svg">
  <defs
     id="defs4" />
  <sodipodi:namedview
     id="base"
     pagecolor="#ffffff"
     bordercolor="#666666"
     borderopacity="1.0"
     inkscape:pageopacity="0.0"
     inkscape:pageshadow="2"
     inkscape:zoom="32"
     inkscape:cx="0.3383643"
     inkscape:cy="8.6804456"
     inkscape:document-units="px"
     inkscape:current-layer="layer1"
     showgrid="false"
     units="px"
     inkscape:window-width="1920"
     inkscape:window-height="1025"
     inkscape:window-x="0"
     inkscape:window-y="27"
     inkscape:window-maximized="1" />
  <metadata
     id="metadata7">
    <rdf:RDF>
      <cc:Work
         rdf:about="">
        <dc:format>image/svg+xml</dc:format>
        <dc:type
           rdf:resource="http://purl.org/dc/dcmitype/StillImage" />
        <dc:title />
      </cc:Work>
    </rdf:RDF>
  </metadata>
  <g
     inkscape:label="レイヤー 1"
     inkscape:groupmode="layer"
     id="layer1"
     transform="translate(0,-1036.3622)">
    <path
       style="opacity:1;fill:#b6b6b6;fill-opacity:1;fill-rule:nonzero;stroke:none;stroke-width:1;stroke-linecap:square;stroke-linejoin:miter;stroke-miterlimit:4;stroke-dasharray:none;stroke-dashoffset:3.84000015;stroke-opacity:1"
       d="m 7.9999997,1039.3554 c -2.5478809,0 -4.8542519,1.0726 -6.5239489,2.8074 C 0.64120236,1043.0301 0,1044.3622 0,1044.3622 c 0,0 0.64123552,1.3321 1.4760508,2.1994 1.6697306,1.7348 3.9760609,2.8075 6.5239489,2.8075 2.5478883,0 4.8542193,-1.0727 6.5239483,-2.8075 C 15.358764,1045.6943 16,1044.3622 16,1044.3622 c 0,0 -0.641203,-1.3321 -1.476051,-2.1994 -1.669696,-1.7348 -3.976068,-2.8074 -6.5239493,-2.8074 z m 0,1.4095 a 3.5972628,3.5972628 0 0 1 3.5972623,3.5973 3.5972628,3.5972628 0 0 1 -3.5972623,3.5973 3.5972628,3.5972628 0 0 1 -3.5972628,-3.5973 3.5972628,3.5972628 0 0 1 3.5972628,-3.5973 z"
       id="path4140-5"
       inkscape:connector-curvature="0"
       class="svgUi" />
    <path
       style="opacity:1;fill:#b6b6b6;fill-opacity:1;fill-rule:nonzero;stroke:none;stroke-width:1;stroke-linecap:square;stroke-linejoin:miter;stroke-miterlimit:4;stroke-dasharray:none;stroke-dashoffset:3.84000015;stroke-opacity:1"
       d="M 10.114771,1044.3622 A 2.1147713,2.1147713 0 0 1 8,1046.477 2.1147713,2.1147713 0 0 1 5.8852287,1044.3622 2.1147713,2.1147713 0 0 1 8,1042.2474 a 2.1147713,2.1147713 0 0 1 2.114771,2.1148 z"
       id="path4173-2"
       inkscape:connector-curvature="0"
       class="svgUi" />
  </g>
</svg>
